<svg width="51" height="75" viewBox="0 0 51 75" fill="none" xmlns="http://www.w3.org/2000/svg">
<g filter="url(#filter0_i)">
<path d="M0 0H50.9406V6.23515H0V0Z" fill="black"/>
<path d="M0 66.9834H50.9406V69.6556H0V66.9834Z" fill="black"/>
<path d="M0 72.3278H50.9406V75H0V72.3278Z" fill="black"/>
<path d="M7.62238 60.1971L8.65732 59.5708H14.4843V60.1971H7.62238ZM5.56989 61.4497L6.62223 60.8234H14.4843V61.4497H5.56989ZM3.49131 62.7023L4.55235 62.076H14.4843V62.7023H3.49131ZM7.5528 53.3078L6.51786 53.9341H0.690888V53.3078H7.5528ZM9.60529 52.0552L8.55296 52.6815H0.690888V52.0552H9.60529ZM11.6839 50.8026L10.6228 51.4289H0.690888V50.8026H11.6839ZM14.4843 51.0201V51.7507L0.690888 61.0234V60.2928L14.4843 51.0201ZM14.4843 52.4988V53.2382L0.690888 62.5022V61.7541L14.4843 52.4988ZM14.4843 53.9689V54.6996L1.62146 63.3286H14.4843V63.9549H0.690888C0.690888 63.9549 0.690888 63.7084 0.690888 63.2155L14.4843 53.9689ZM13.5537 50.1763H0.690888V49.55H14.4843C14.4843 49.55 14.4843 49.7994 14.4843 50.2981L0.690888 59.5447V58.8227L13.5537 50.1763Z" fill="black"/>
<path d="M29.5753 54.4734L29.0622 54.8126C28.7491 54.3487 28.3403 53.9834 27.8359 53.7166C27.3373 53.4441 26.7952 53.3078 26.2096 53.3078C25.2587 53.3078 24.447 53.6441 23.7744 54.3168C23.1018 54.9895 22.7656 55.8014 22.7656 56.7524C22.7656 57.7035 23.1018 58.5153 23.7744 59.188C24.447 59.8607 25.2587 60.1971 26.2096 60.1971C26.7952 60.1971 27.3373 60.0608 27.8359 59.7882C28.3403 59.5157 28.7491 59.1474 29.0622 58.6835L29.5666 59.0489C29.1955 59.594 28.7143 60.026 28.1229 60.3449C27.5315 60.6639 26.8937 60.8234 26.2096 60.8234C25.6588 60.8234 25.1311 60.7161 24.6267 60.5015C24.1281 60.287 23.6961 59.997 23.3309 59.6317C22.9656 59.2663 22.6757 58.8343 22.4612 58.3356C22.2466 57.8311 22.1394 57.3033 22.1394 56.7524C22.1394 56.2015 22.2466 55.6767 22.4612 55.178C22.6757 54.6735 22.9656 54.2385 23.3309 53.8732C23.6961 53.5079 24.1281 53.2179 24.6267 53.0033C25.1311 52.7888 25.6588 52.6815 26.2096 52.6815C26.8995 52.6815 27.5402 52.8439 28.1316 53.1686C28.723 53.4876 29.2042 53.9225 29.5753 54.4734ZM30.6102 53.7601L30.0884 54.0994C29.6594 53.4731 29.1028 52.9772 28.4186 52.6119C27.7402 52.2408 27.0039 52.0552 26.2096 52.0552C25.3573 52.0552 24.5716 52.2669 23.8527 52.6902C23.1337 53.1077 22.5626 53.676 22.1394 54.3951C21.7219 55.1142 21.5132 55.9 21.5132 56.7524C21.5132 57.6049 21.7219 58.3907 22.1394 59.1097C22.5626 59.8288 23.1337 60.4 23.8527 60.8234C24.5716 61.2409 25.3573 61.4497 26.2096 61.4497C27.0039 61.4497 27.7431 61.2641 28.4273 60.893C29.1115 60.5218 29.6681 60.0202 30.0971 59.3881L30.6102 59.7447C30.1232 60.4638 29.4912 61.0321 28.7143 61.4497C27.9432 61.8672 27.1082 62.076 26.2096 62.076C25.2471 62.076 24.3571 61.8382 23.5396 61.3627C22.7221 60.8872 22.0756 60.2406 21.6002 59.4229C21.1247 58.6052 20.887 57.7151 20.887 56.7524C20.887 55.7898 21.1247 54.8996 21.6002 54.082C22.0756 53.2643 22.7221 52.6177 23.5396 52.1422C24.3571 51.6666 25.2471 51.4289 26.2096 51.4289C27.1082 51.4289 27.9432 51.6377 28.7143 52.0552C29.4912 52.4727 30.1232 53.041 30.6102 53.7601ZM31.6539 53.0642L31.132 53.4035C30.587 52.6032 29.8797 51.9711 29.01 51.5072C28.1461 51.0374 27.2126 50.8026 26.2096 50.8026C25.4036 50.8026 24.6325 50.9592 23.8962 51.2723C23.1598 51.5855 22.5249 52.0088 21.9915 52.5423C21.4639 53.07 21.0436 53.7021 20.7305 54.4386C20.4174 55.1751 20.2608 55.9464 20.2608 56.7524C20.2608 57.5585 20.4174 58.3298 20.7305 59.0663C21.0436 59.8027 21.4639 60.4377 21.9915 60.9712C22.5249 61.499 23.1598 61.9194 23.8962 62.2325C24.6325 62.5457 25.4036 62.7023 26.2096 62.7023C27.2184 62.7023 28.1548 62.4674 29.0187 61.9977C29.8826 61.528 30.587 60.893 31.132 60.0927L31.6365 60.4667C31.0335 61.3482 30.2537 62.047 29.297 62.5631C28.3461 63.0734 27.317 63.3286 26.2096 63.3286C25.021 63.3286 23.9223 63.0357 22.9134 62.45C21.9046 61.8585 21.1044 61.0582 20.513 60.0492C19.9274 59.0402 19.6346 57.9412 19.6346 56.7524C19.6346 55.5636 19.9274 54.4647 20.513 53.4557C21.1044 52.4466 21.9046 51.6493 22.9134 51.0635C23.9223 50.472 25.021 50.1763 26.2096 50.1763C27.3228 50.1763 28.3577 50.4372 29.3144 50.9592C30.271 51.4753 31.0509 52.177 31.6539 53.0642ZM32.6801 52.3509L32.1583 52.6902C31.4973 51.7217 30.6421 50.9563 29.5927 50.3938C28.549 49.8312 27.4213 49.55 26.2096 49.55C25.2355 49.55 24.302 49.7414 23.4091 50.1241C22.522 50.501 21.7567 51.0114 21.1131 51.655C20.4696 52.2987 19.9564 53.0671 19.5738 53.9602C19.1969 54.8474 19.0085 55.7782 19.0085 56.7524C19.0085 57.7267 19.1969 58.6603 19.5738 59.5534C19.9564 60.4406 20.4696 61.2061 21.1131 61.8498C21.7567 62.4935 22.522 63.0067 23.4091 63.3895C24.302 63.7664 25.2355 63.9549 26.2096 63.9549C27.4213 63.9549 28.5519 63.6707 29.6014 63.1024C30.6508 62.5341 31.506 61.7657 32.167 60.7973L32.6714 61.18C31.9525 62.2238 31.0248 63.0531 29.8884 63.6678C28.752 64.2767 27.5257 64.5812 26.2096 64.5812C25.1485 64.5812 24.1339 64.3724 23.1656 63.9549C22.2032 63.5431 21.3711 62.9893 20.6696 62.2934C19.9738 61.5917 19.4172 60.7596 18.9998 59.7969C18.5881 58.8285 18.3823 57.8137 18.3823 56.7524C18.3823 55.6912 18.5881 54.6793 18.9998 53.7166C19.4172 52.7482 19.9738 51.916 20.6696 51.2201C21.3711 50.5184 22.2032 49.9617 23.1656 49.55C24.1339 49.1325 25.1485 48.9237 26.2096 48.9237C27.5315 48.9237 28.7607 49.231 29.8971 49.8457C31.0335 50.4604 31.9612 51.2955 32.6801 52.3509Z" fill="black"/>
<path d="M47.4319 54.4734L46.9188 54.8126C46.6057 54.3487 46.197 53.9834 45.6925 53.7166C45.1939 53.4441 44.6518 53.3078 44.0662 53.3078C43.1153 53.3078 42.3036 53.6441 41.631 54.3168C40.9585 54.9895 40.6222 55.8014 40.6222 56.7524C40.6222 57.7035 40.9585 58.5153 41.631 59.188C42.3036 59.8607 43.1153 60.1971 44.0662 60.1971C44.6518 60.1971 45.1939 60.0608 45.6925 59.7882C46.197 59.5157 46.6057 59.1474 46.9188 58.6835L47.4232 59.0489C47.0522 59.594 46.5709 60.026 45.9795 60.3449C45.3881 60.6639 44.7504 60.8234 44.0662 60.8234C43.5154 60.8234 42.9878 60.7161 42.4833 60.5015C41.9847 60.287 41.5528 59.997 41.1875 59.6317C40.8222 59.2663 40.5323 58.8343 40.3178 58.3356C40.1033 57.8311 39.996 57.3033 39.996 56.7524C39.996 56.2015 40.1033 55.6767 40.3178 55.178C40.5323 54.6735 40.8222 54.2385 41.1875 53.8732C41.5528 53.5079 41.9847 53.2179 42.4833 53.0033C42.9878 52.7888 43.5154 52.6815 44.0662 52.6815C44.7562 52.6815 45.3968 52.8439 45.9882 53.1686C46.5796 53.4876 47.0609 53.9225 47.4319 54.4734ZM48.4669 53.7601L47.945 54.0994C47.516 53.4731 46.9594 52.9772 46.2752 52.6119C45.5969 52.2408 44.8605 52.0552 44.0662 52.0552C43.2139 52.0552 42.4283 52.2669 41.7093 52.6902C40.9904 53.1077 40.4193 53.676 39.996 54.3951C39.5786 55.1142 39.3698 55.9 39.3698 56.7524C39.3698 57.6049 39.5786 58.3907 39.996 59.1097C40.4193 59.8288 40.9904 60.4 41.7093 60.8234C42.4283 61.2409 43.2139 61.4497 44.0662 61.4497C44.8605 61.4497 45.5998 61.2641 46.2839 60.893C46.9681 60.5218 47.5247 60.0202 47.9537 59.3881L48.4669 59.7447C47.9798 60.4638 47.3479 61.0321 46.5709 61.4497C45.7998 61.8672 44.9649 62.076 44.0662 62.076C43.1037 62.076 42.2137 61.8382 41.3962 61.3627C40.5787 60.8872 39.9322 60.2406 39.4568 59.4229C38.9814 58.6052 38.7436 57.7151 38.7436 56.7524C38.7436 55.7898 38.9814 54.8996 39.4568 54.082C39.9322 53.2643 40.5787 52.6177 41.3962 52.1422C42.2137 51.6666 43.1037 51.4289 44.0662 51.4289C44.9649 51.4289 45.7998 51.6377 46.5709 52.0552C47.3479 52.4727 47.9798 53.041 48.4669 53.7601ZM49.5105 53.0642L48.9887 53.4035C48.4437 52.6032 47.7363 51.9711 46.8666 51.5072C46.0027 51.0374 45.0692 50.8026 44.0662 50.8026C43.2603 50.8026 42.4891 50.9592 41.7528 51.2723C41.0165 51.5855 40.3816 52.0088 39.8482 52.5423C39.3205 53.07 38.9002 53.7021 38.5871 54.4386C38.274 55.1751 38.1175 55.9464 38.1175 56.7524C38.1175 57.5585 38.274 58.3298 38.5871 59.0663C38.9002 59.8027 39.3205 60.4377 39.8482 60.9712C40.3816 61.499 41.0165 61.9194 41.7528 62.2325C42.4891 62.5457 43.2603 62.7023 44.0662 62.7023C45.075 62.7023 46.0114 62.4674 46.8753 61.9977C47.7392 61.528 48.4437 60.893 48.9887 60.0927L49.4931 60.4667C48.8901 61.3482 48.1103 62.047 47.1536 62.5631C46.2028 63.0734 45.1736 63.3286 44.0662 63.3286C42.8776 63.3286 41.7789 63.0357 40.77 62.45C39.7612 61.8585 38.9611 61.0582 38.3697 60.0492C37.7841 59.0402 37.4913 57.9412 37.4913 56.7524C37.4913 55.5636 37.7841 54.4647 38.3697 53.4557C38.9611 52.4466 39.7612 51.6493 40.77 51.0635C41.7789 50.472 42.8776 50.1763 44.0662 50.1763C45.1794 50.1763 46.2143 50.4372 47.171 50.9592C48.1277 51.4753 48.9075 52.177 49.5105 53.0642ZM50.5367 52.3509L50.0149 52.6902C49.354 51.7217 48.4988 50.9563 47.4493 50.3938C46.4057 49.8312 45.278 49.55 44.0662 49.55C43.0921 49.55 42.1587 49.7414 41.2658 50.1241C40.3787 50.501 39.6133 51.0114 38.9698 51.655C38.3262 52.2987 37.8131 53.0671 37.4304 53.9602C37.0535 54.8474 36.8651 55.7782 36.8651 56.7524C36.8651 57.7267 37.0535 58.6603 37.4304 59.5534C37.8131 60.4406 38.3262 61.2061 38.9698 61.8498C39.6133 62.4935 40.3787 63.0067 41.2658 63.3895C42.1587 63.7664 43.0921 63.9549 44.0662 63.9549C45.278 63.9549 46.4086 63.6707 47.458 63.1024C48.5075 62.5341 49.3627 61.7657 50.0236 60.7973L50.528 61.18C49.8091 62.2238 48.8814 63.0531 47.745 63.6678C46.6086 64.2767 45.3823 64.5812 44.0662 64.5812C43.0052 64.5812 41.9905 64.3724 41.0223 63.9549C40.0598 63.5431 39.2278 62.9893 38.5262 62.2934C37.8305 61.5917 37.2739 60.7596 36.8564 59.7969C36.4447 58.8285 36.2389 57.8137 36.2389 56.7524C36.2389 55.6912 36.4447 54.6793 36.8564 53.7166C37.2739 52.7482 37.8305 51.916 38.5262 51.2201C39.2278 50.5184 40.0598 49.9617 41.0223 49.55C41.9905 49.1325 43.0052 48.9237 44.0662 48.9237C45.3881 48.9237 46.6173 49.231 47.7537 49.8457C48.8901 50.4604 49.8178 51.2955 50.5367 52.3509Z" fill="black"/>
<path fill-rule="evenodd" clip-rule="evenodd" d="M0 8.90736V32.3337H5.76298C5.62577 33.9964 4.28107 37.5534 0 38.4798V47.0309C7.56985 47.0309 13.6257 43.8242 17.3919 39.4596C21.158 35.095 22.6205 31.3539 23.1548 26.1876C23.6892 21.0214 23.1548 8.90736 23.1548 8.90736H0ZM8.07055 17.4603C10.8697 17.5316 12.5986 19.3903 13.1132 20.3107H3.02794C3.54249 19.3309 5.27139 17.3891 8.07055 17.4603Z" fill="black"/>
<path fill-rule="evenodd" clip-rule="evenodd" d="M51 8.90736V32.3337C47.2893 33.4917 45.9534 36.342 45.33 38.4798H51V47.0309C43.4301 47.0309 37.3743 43.8242 33.6081 39.4596C29.842 35.095 28.3795 31.3539 27.8452 26.1876C27.3108 21.0214 27.8452 8.90736 27.8452 8.90736H51ZM42.958 20.3088C40.0727 20.2375 38.2906 18.3789 37.7602 17.4584H48.1557C47.6253 18.4382 45.8432 20.3801 42.958 20.3088Z" fill="black"/>
</g>
<defs>
<filter id="filter0_i" x="0" y="0" width="55" height="79" filterUnits="userSpaceOnUse" color-interpolation-filters="sRGB">
<feFlood flood-opacity="0" result="BackgroundImageFix"/>
<feBlend mode="normal" in="SourceGraphic" in2="BackgroundImageFix" result="shape"/>
<feColorMatrix in="SourceAlpha" type="matrix" values="0 0 0 0 0 0 0 0 0 0 0 0 0 0 0 0 0 0 127 0" result="hardAlpha"/>
<feOffset dx="10" dy="5"/>
<feGaussianBlur stdDeviation="2"/>
<feComposite in2="hardAlpha" operator="arithmetic" k2="-1" k3="1"/>
<feColorMatrix type="matrix" values="0 0 0 0 0 0 0 0 0 0 0 0 0 0 0 0 0 0 0.4 0"/>
<feBlend mode="normal" in2="shape" result="effect1_innerShadow"/>
</filter>
</defs>
</svg>
