<svg width="319" height="223" viewBox="0 0 319 223" fill="none" xmlns="http://www.w3.org/2000/svg">
<path d="M30.8462 135.087C33.6711 137.637 37.0516 139.623 40.7467 140.785C46.3934 142.559 52.6395 142.373 58.2303 140.464L66.3874 132.508L66.3999 132.445L67.0549 131.806C66.9221 131.739 66.7876 131.677 66.6556 131.609C66.6049 131.582 66.5593 131.548 66.5086 131.521L66.5211 131.408C66.4862 131.434 66.4505 131.459 66.4156 131.485C57.8791 126.975 51.0728 119.556 47.5161 110.883C43.9263 102.129 43.6782 92.151 46.8316 83.245C49.106 76.8218 53.038 71.0527 57.3278 65.6497C61.6185 60.2459 66.311 55.146 70.3709 49.5822C74.4299 44.0178 77.8771 37.9078 79.3242 31.27C80.7704 24.6321 80.0473 17.3827 76.2681 11.6413C73.0451 6.74602 67.6635 3.19668 61.7289 2.03784C60.6687 1.83068 59.5877 1.7089 58.5076 1.65429C63.9241 2.95751 68.8001 6.23941 71.862 10.7015C75.7674 16.3909 76.6201 23.6502 75.2618 30.3271C73.9044 37.0032 70.4946 43.1697 66.443 48.7636C58.3391 59.9534 47.3778 69.5505 42.4262 82.3053C38.7384 91.8045 38.7967 102.598 42.5919 112.059C44.9638 117.972 48.7889 123.33 53.6109 127.676C56.3067 130.105 59.3063 132.217 62.5517 133.926C56.1365 137.232 48.2899 138.005 41.3528 135.826C32.9067 133.171 26.0971 126.229 23.8619 118.015C23.1304 115.326 22.8655 112.546 22.9873 109.773C22.1145 114.155 22.0725 118.684 23.2432 122.986C24.5005 127.607 27.215 131.81 30.8469 135.088L30.8462 135.087ZM22.9865 109.773C23.317 108.114 23.7721 106.468 24.3208 104.869C26.3189 99.0457 29.5733 93.6972 33.1248 88.5929C40.2279 78.3831 48.8005 68.5643 51.6399 56.6112C52.1389 54.5095 52.4419 52.3732 52.5598 50.2213C52.466 50.7009 52.358 51.1767 52.2451 51.6526C49.4057 63.6044 40.8469 73.4106 33.7437 83.6211C30.1922 88.726 26.9248 94.0864 24.9267 99.9101C23.8342 103.093 23.1335 106.428 22.9867 109.773H22.9865ZM52.5598 50.2213C53.7379 44.1722 53.3568 37.8413 51.4523 31.9624C49.3966 25.6176 45.5617 19.8134 40.4605 15.2967C39.5041 14.4498 38.4938 13.6413 37.4545 12.8892C39.1302 9.93062 41.5159 7.3292 44.4124 5.41329C48.4858 2.71833 53.5096 1.38811 58.4553 1.62917C58.0925 1.54254 57.7205 1.46847 57.3536 1.40004C51.4813 0.309004 45.1655 1.57141 40.2486 4.82445C37.8577 6.40577 35.8234 8.45853 34.24 10.7869C30.5361 8.61233 26.4585 7.01093 22.2191 6.08436C15.4364 4.60285 8.25392 4.85458 1.60172 6.80314L0.983032 11.775C7.63481 9.82642 14.8299 9.56151 21.6129 11.0436C25.2568 11.8403 28.7657 13.1491 32.0354 14.878C31.514 16.1806 31.1315 17.5321 30.8897 18.9075C29.9 24.5385 31.3909 30.521 34.9262 35.1275L39.3453 36.0798C35.6735 31.4815 34.0706 25.4224 35.016 19.7117C35.1666 18.8008 35.3987 17.9094 35.6738 17.0262C37.1384 18.0086 38.5416 19.0933 39.854 20.2553C44.955 24.772 48.7772 30.5895 50.8329 36.9342C52.2211 41.2199 52.8047 45.7416 52.559 50.2207L52.5598 50.2213Z" fill="#A90051" stroke="#A90051" stroke-width="0.566746" stroke-linecap="round" stroke-linejoin="round"/>
<path d="M288.136 87.9727C285.312 85.4234 281.931 83.4372 278.236 82.2758C272.589 80.5012 266.343 80.687 260.752 82.5953L252.595 90.5515L252.582 90.6149L251.928 91.2534C252.061 91.3205 252.195 91.3827 252.327 91.4517C252.378 91.4781 252.424 91.512 252.473 91.5384L252.462 91.652C252.497 91.6262 252.532 91.6018 252.566 91.5754C261.104 96.0858 267.91 103.505 271.467 112.177C275.056 120.931 275.304 130.909 272.151 139.815C269.877 146.239 265.945 152.007 261.655 157.411C257.364 162.814 252.671 167.914 248.612 173.478C244.553 179.042 241.106 185.153 239.659 191.79C238.212 198.428 238.935 205.678 242.715 211.419C245.937 216.314 251.319 219.864 257.253 221.023C258.314 221.23 259.394 221.351 260.474 221.406C255.059 220.103 250.183 216.82 247.12 212.358C243.215 206.67 242.362 199.41 243.72 192.733C245.079 186.056 248.487 179.891 252.54 174.296C260.643 163.107 271.605 153.51 276.556 140.755C280.244 131.255 280.186 120.462 276.391 111.001C274.019 105.088 270.194 99.73 265.371 95.3846C262.676 92.9558 259.676 90.8428 256.43 89.1341C262.846 85.8277 270.693 85.0543 277.63 87.2345C286.076 89.8886 292.885 96.8316 295.121 105.046C295.853 107.734 296.117 110.514 295.995 113.287C296.868 108.905 296.91 104.376 295.74 100.074C294.482 95.453 291.768 91.2502 288.135 87.9727H288.136ZM295.996 113.288C295.666 114.947 295.211 116.592 294.662 118.191C292.664 124.015 289.409 129.363 285.858 134.467C278.755 144.677 270.182 154.496 267.343 166.449C266.844 168.55 266.541 170.687 266.423 172.839C266.516 172.359 266.625 171.884 266.738 171.408C269.576 159.456 278.136 149.649 285.239 139.439C288.791 134.334 292.058 128.974 294.056 123.15C295.149 119.966 295.849 116.632 295.996 113.288ZM266.423 172.839C265.244 178.888 265.625 185.219 267.531 191.097C269.586 197.442 273.421 203.246 278.522 207.764C279.479 208.611 280.489 209.418 281.528 210.171C279.852 213.13 277.467 215.731 274.57 217.647C270.496 220.342 265.473 221.672 260.528 221.431C260.89 221.517 261.262 221.592 261.629 221.66C267.501 222.751 273.817 221.488 278.734 218.236C281.125 216.654 283.159 214.602 284.742 212.273C288.447 214.447 292.524 216.049 296.763 216.975C303.546 218.458 310.729 218.206 317.381 216.257L318 211.285C311.348 213.234 304.152 213.498 297.37 212.016C293.726 211.22 290.217 209.911 286.947 208.182C287.469 206.88 287.851 205.528 288.093 204.152C289.083 198.521 287.592 192.539 284.057 187.933L279.637 186.981C283.309 191.578 284.912 197.638 283.967 203.348C283.816 204.259 283.584 205.151 283.308 206.034C281.844 205.052 280.441 203.966 279.128 202.804C274.027 198.288 270.206 192.471 268.15 186.126C266.761 181.84 266.178 177.319 266.424 172.84L266.423 172.839Z" fill="#A90051" stroke="#A90051" stroke-width="0.566746" stroke-linecap="round" stroke-linejoin="round"/>
<path d="M129.353 58.8209C93.0829 53.2351 66.7079 72.2235 61.01 105.923C55.4466 138.83 62.3558 169.564 71.2543 188.18C80.1752 206.841 96.3283 220.855 101.814 221.7C107.301 222.545 127.252 214.093 141.869 199.055C156.086 184.431 172.99 157.839 178.703 124.049C184.4 90.3506 164.66 64.2592 129.352 58.8209H129.353Z" fill="#404040" stroke="#A90051" stroke-width="1.13346" stroke-linecap="round" stroke-linejoin="round"/>
<path d="M129.353 58.8297C165.622 64.4155 184.399 90.3569 178.702 124.056C173.138 156.964 156.446 184.049 141.864 199.049C127.246 214.085 107.303 222.539 101.817 221.694L129.353 58.8285V58.8297Z" fill="#A90051"/>
<path d="M123.837 139.001C124.913 136.968 128.398 136 135.581 137.005C143.046 138.049 157.955 145.228 156.881 147.26C156.163 148.62 138.102 147.4 131.283 145.136C124.458 142.871 122.849 140.87 123.837 139.001Z" fill="#404040" stroke="#404040" stroke-width="1.13346" stroke-linecap="round" stroke-linejoin="round"/>
<path d="M107.952 136.811C107.634 134.555 104.67 132.552 97.5387 131.26C90.1272 129.917 73.5772 132.048 73.896 134.305C74.1094 135.813 91.5942 140.297 98.8148 140.285C106.041 140.275 108.245 138.886 107.953 136.811H107.952Z" fill="#A90051" stroke="#A90051" stroke-width="1.13346" stroke-linecap="round" stroke-linejoin="round"/>
<path d="M123.224 132.388C123.224 132.388 136.193 127.32 141.222 128.095C146.033 128.836 162.48 133.724 162.48 133.724C162.48 133.724 146.421 126.54 141.611 125.799C136.793 125.057 123.223 132.388 123.223 132.388H123.224Z" fill="#404040" stroke="#404040" stroke-width="1.13346" stroke-linecap="round" stroke-linejoin="round"/>
<path d="M110.923 130.487C110.923 130.487 100.282 121.782 95.253 121.008C90.4426 120.267 73.2194 119.969 73.2194 119.969C73.2194 119.969 90.8304 117.971 95.6408 118.712C100.459 119.454 110.923 130.487 110.923 130.487Z" fill="#A90051" stroke="#A90051" stroke-width="1.13346" stroke-linecap="round" stroke-linejoin="round"/>
<path d="M117.621 131.658C119.147 140.58 117.438 147.505 116.944 153.777C116.45 160.05 116.353 162.097 118.124 165.612C119.895 169.127 122.065 178.925 119.041 177.267C116.017 175.609 113.057 176.477 110.17 175.901C113.238 157.593 115.712 142.948 117.621 131.659V131.658Z" fill="#404040" stroke="#404040" stroke-width="1.13346" stroke-linecap="round" stroke-linejoin="round"/>
<path d="M116.429 131.463C112.041 139.474 111.429 146.593 109.83 152.696C108.231 158.799 107.649 160.77 104.81 163.576C101.971 166.381 96.6819 175.03 100.098 174.364C103.515 173.697 106.039 175.41 108.969 175.73C112.091 157.43 114.52 142.752 116.429 131.463Z" fill="#A90051" stroke="#A90051" stroke-width="1.13346" stroke-linecap="round" stroke-linejoin="round"/>
<path d="M127.351 200.022C127.351 200.022 118.752 184.174 109.038 182.722L107.606 191.189C116.531 192.564 127.351 200.021 127.351 200.021V200.022Z" fill="#404040" stroke="#404040" stroke-width="1.13346" stroke-linecap="round" stroke-linejoin="round"/>
<path d="M84.7729 193.459C84.7729 193.459 98.1589 180.998 107.858 182.535L106.426 191.002C97.5005 189.628 84.7729 193.459 84.7729 193.459Z" fill="#A90051" stroke="#A90051" stroke-width="1.13346" stroke-linecap="round" stroke-linejoin="round"/>
<path d="M195.385 1.61284C158.796 4.77485 138.17 29.4068 141.395 63.4029C144.545 96.6005 159.215 124.742 172.667 140.675C186.152 156.646 205.438 166.405 210.973 165.926C216.508 165.448 233.645 152.542 243.905 134.518C253.883 116.989 263.358 87.23 260.125 53.1429C256.9 19.1467 231.004 -1.46505 195.385 1.61347V1.61284Z" fill="#404040" stroke="#A90051" stroke-width="1.13346" stroke-linecap="round" stroke-linejoin="round"/>
<path d="M195.385 1.621C231.974 -1.54101 256.898 19.153 260.123 53.1498C263.272 86.3474 254.13 116.534 243.895 134.513C233.634 152.537 216.507 165.442 210.972 165.919L195.388 1.62038L195.385 1.621Z" fill="#A90051"/>
<path d="M179.57 126.717C179.57 126.717 198.251 142.37 208.039 141.48L206.959 130.092C197.954 130.87 179.571 126.718 179.571 126.718L179.57 126.717Z" fill="#A90051" stroke="#A90051" stroke-width="1.13346" stroke-linecap="round" stroke-linejoin="round"/>
<path d="M234.485 121.972C234.485 121.972 219.054 140.572 209.257 141.375L208.177 129.987C217.182 129.208 234.484 121.972 234.484 121.972H234.485Z" fill="#404040" stroke="#404040" stroke-width="1.13346" stroke-linecap="round" stroke-linejoin="round"/>
<path d="M211.661 85.5194C211.446 83.2519 213.867 80.6699 220.52 77.8952C227.433 75.0113 244.065 73.5744 244.28 75.8418C244.423 77.3579 228.423 85.4428 221.381 86.9657C214.334 88.4905 211.86 87.6041 211.662 85.5194H211.661Z" fill="#404040" stroke="#404040" stroke-width="1.13346" stroke-linecap="round" stroke-linejoin="round"/>
<path d="M195.171 86.9457C194.956 84.6782 192.089 82.5533 185.022 80.9638C177.679 79.3122 161.048 80.7497 161.262 83.0172C161.406 84.5332 178.669 89.7436 185.882 90.0349C193.102 90.3261 195.369 89.0305 195.17 86.9457H195.171Z" fill="#A90051" stroke="#A90051" stroke-width="1.13346" stroke-linecap="round" stroke-linejoin="round"/>
<path d="M208.549 74.3309C208.549 74.3309 219.799 66.3546 224.873 65.9165C229.725 65.4971 246.928 66.3446 246.928 66.3446C246.928 66.3446 229.506 63.1813 224.653 63.6007C219.793 64.0206 208.549 74.3309 208.549 74.3309Z" fill="#404040" stroke="#404040" stroke-width="1.13346" stroke-linecap="round" stroke-linejoin="round"/>
<path d="M196.123 75.4006C196.123 75.4006 183.555 69.4827 178.481 69.9209C173.628 70.3402 156.865 74.1237 156.865 74.1237C156.865 74.1237 173.408 68.0251 178.261 67.6057C183.121 67.1858 196.123 75.4006 196.123 75.4006Z" fill="#A90051" stroke="#A90051" stroke-width="1.13346" stroke-linecap="round" stroke-linejoin="round"/>
<path d="M202.918 74.9586C206.712 83.2425 206.854 90.355 208.003 96.5497C209.152 102.744 209.589 104.749 212.218 107.736C214.845 110.723 219.49 119.703 216.13 118.811C212.771 117.92 210.128 119.46 207.181 119.585C205.401 101.122 203.998 86.348 202.918 74.9599V74.9586Z" fill="#404040" stroke="#404040" stroke-width="1.13346" stroke-linecap="round" stroke-linejoin="round"/>
<path d="M201.718 75.0441C199.545 83.8427 200.799 90.8849 200.834 97.175C200.87 103.466 200.817 105.513 198.794 108.902C196.771 112.291 193.892 121.921 197.029 120.468C200.167 119.015 203.056 120.077 205.978 119.695C204.254 101.227 202.799 86.4322 201.718 75.0428V75.0441Z" fill="#A90051" stroke="#A90051" stroke-width="1.13346" stroke-linecap="round" stroke-linejoin="round"/>
</svg>
